# xmcd
#
# Track frame offsets:
#	150
#	11425
#	26032
#	36357
#	45527
#	56962
#	68052
#	77612
#	89232
#	96360
#	106882
#
# Disc length: 1622 seconds
#
# Revision: 0
# Processed by: cddbd v1.5.2PL0 Copyright (c) Steve Scherf et al.
# Submitted via: EasyCDDAExtractor 12.0.0.1
#
DISCID=9006540b
DTITLE=Brigitte Bardot - Vade retro
DYEAR=1998
DGENRE=Chanson
TTITLE0=Harley Davidson
TTITLE1=Mister sun
TTITLE2=Ay que viva la sangria
TTITLE3=Gang gang
TTITLE4=Oh qu'il est vilain
TTITLE5=Je reviendrai toujours vers toi
TTITLE6=On déménage
TTITLE7=Le diable est anglais
TTITLE8=Ce n'est pas vrai
TTITLE9=Contact
TTITLE10=Le soleil
EXTD=
EXTT0=
EXTT1=
EXTT2=
EXTT3=
EXTT4=
EXTT5=
EXTT6=
EXTT7=
EXTT8=
EXTT9=
EXTT10=
PLAYORDER=
